<?xml version="1.0" encoding="utf-8"?>
<!-- Generator: Adobe Illustrator 23.0.1, SVG Export Plug-In . SVG Version: 6.00 Build 0)  -->
<svg version="1.1" id="Layer_1" xmlns="http://www.w3.org/2000/svg" xmlns:xlink="http://www.w3.org/1999/xlink" x="0px" y="0px"
	 viewBox="0 0 48 48" style="enable-background:new 0 0 48 48;" xml:space="preserve">
<g>
	<g>
		<g>
			<path fill="#FFFFFF" d="M28.7,6.1c-0.3,0.4-5,4.6-5.6,5.7H11c-1.2,0-2.2,1-2.2,2.2v11.4c0,1.2,1,2.2,2.2,2.2h21.1
				c1.2,0,2.2-1,2.2-2.2v-3.7v-1.3l-1.7,0.2c-0.1,0.1-0.1,0.1-0.2,0.2v0.7V23c-0.3-0.1-0.6-0.1-0.9,0c-0.9,0.2-1.6,0.9-1.8,1.8
				c-0.1,0.3,0,0.7,0,1H13.3c0-0.1,0-0.3,0-0.4c0-1.2-1-2.2-2.2-2.2c-0.1,0-0.3,0-0.4,0v-6.8c0.1,0,0.3,0,0.4,0c1.2,0,2.2-1,2.2-2.2
				c0-0.1,0-0.3,0-0.4h16l0,0H34c-0.6,0.8-2.3,1.6-2.3,1.6s-4.7,0.4-4.7,2.8c0,0.1,0,0.1,0,0.2c0,0,0.2,1.8,5.3,0.3L38,18
				c0,0,3.1-0.8,5.3-2.8h0.6c0.3,0,0.6-0.3,0.6-0.6V7.8c0-0.3-0.2-0.6-0.6-0.6C41.8,6.9,33.4,6,32.1,5.5c-0.2-0.1-0.4-0.2-0.6-0.2
				C30.8,5.1,29.5,5.1,28.7,6.1z"/>
		</g>
		<g>
			<circle fill="#FFFFFF" cx="14.7" cy="19.5" r="1.3"/>
		</g>
		<g>
			<g>
				<path fill="#FFFFFF" d="M21.7,24.5c2.3,0,4.2-1.6,4.7-3.8c-0.1-0.1-0.2-0.1-0.3-0.2c-1-0.7-1.2-1.7-1.3-2c0-0.1,0-0.3,0-0.4
					c0-0.5,0.1-1.1,0.4-1.8c-0.9-0.9-2.1-1.5-3.5-1.5c-2.7,0-4.8,2.2-4.8,4.8S19.1,24.5,21.7,24.5z M21.3,22.6c0-0.3,0-0.3-0.3-0.3
					c-0.2,0-0.4-0.1-0.6-0.2c-0.1-0.1-0.2-0.1-0.1-0.2c0.1-0.2,0.1-0.4,0.2-0.5c0.1-0.2,0.1-0.2,0.3-0.1c0.3,0.2,0.7,0.2,1,0.2
					c0.1,0,0.2,0,0.3-0.1c0.3-0.1,0.4-0.5,0.1-0.7c-0.1-0.1-0.3-0.2-0.4-0.2c-0.3-0.1-0.6-0.2-0.8-0.4c-0.8-0.5-1.1-1.5-0.5-2.2
					c0.2-0.3,0.5-0.4,0.8-0.5c0.1,0,0.2-0.1,0.2-0.3s0-0.3,0-0.4c0-0.1,0.1-0.2,0.2-0.2c0.2,0,0.3,0,0.5,0c0.1,0,0.2,0.1,0.2,0.2
					c0,0.1,0,0.2,0,0.3c0,0.2,0,0.2,0.2,0.3c0.3,0,0.6,0.1,0.8,0.2c0.2,0.1,0.2,0.2,0.2,0.4c0,0.2-0.1,0.3-0.1,0.5
					c-0.1,0.2-0.1,0.2-0.3,0.1c-0.3-0.2-0.6-0.2-0.9-0.3c-0.2,0-0.4,0-0.6,0.1c-0.4,0.2-0.4,0.6-0.1,0.8c0.1,0.1,0.2,0.1,0.3,0.2
					c0.3,0.1,0.6,0.2,0.9,0.4c0.5,0.3,0.8,0.7,0.7,1.3c0,0.7-0.4,1.1-1,1.3c-0.2,0.1-0.2,0.1-0.3,0.3c0,0.1,0,0.2,0,0.3
					c0,0.2,0,0.2-0.2,0.2c-0.1,0-0.1,0-0.2,0C21.3,23,21.3,23,21.3,22.6z"/>
			</g>
		</g>
	</g>
</g>
<rect fill="#FFFFFF" x="45" y="6.7" width="2.5" height="9"/>
<g>
	<path fill="#FFFFFF" d="M7.2,40c0.2-0.1,0.5-0.2,0.7-0.2c0.3-0.1,0.6-0.1,0.9-0.2c0.1,0,0.3,0,0.4,0c0.1,0,0.1,0,0.2,0
		c0.1,0,0.1,0,0.2,0c0.3,0,0.5,0,0.7,0c0,0,0,0,0,0c0,0,0.1,0,0.1,0c0,0,0,0,0.1,0c0,0,0.1,0,0.1,0c0,0,0,0,0.1,0c0,0,0.1,0,0.1,0
		c0,0,0.1,0,0.1,0c0,0,0.1,0,0.1,0c0,0,0.1,0,0.1,0c0,0,0.1,0,0.1,0c0,0,0.1,0,0.1,0c0,0,0.1,0,0.1,0c0,0,0.1,0,0.1,0
		c0,0,0.1,0,0.1,0c0,0,0.1,0,0.1,0c0.1,0,0.1,0,0.2,0c0,0,0.1,0,0.1,0c0.1,0,0.1,0,0.2,0c0,0,0,0,0.1,0c0.1,0,0.1,0,0.2,0
		c0,0,0,0,0.1,0c0.1,0,0.1,0,0.2,0.1c0,0,0,0,0,0c1.9,0.5,4.4,1.3,6.2,1.6c0.8,0.1,1.1,0,1.6,0c0.4-0.1,5-3.2,6.8-4.8
		c2.4-2.2,4.1-4.4,5.1-6c0.1-0.2,0.1-0.5-0.1-0.6L32.1,30c-0.2-0.1-0.4-0.2-0.6-0.1L31.3,30c-0.2,0-0.5,0.2-0.9,0.4
		c-0.3,0.2-1.5,1.5-1.8,1.7l-1.8,1.4l-1.1,0.9c0.3-0.3,0.4-0.6,0.4-0.9l0-0.6c-0.1-0.7-0.7-1.1-1.2-1.1l-3.4-0.2
		c-0.8,0.1-1.7,0.1-2.7,0c-1-0.1-1.8-0.2-2.6-0.4c-1.3-0.3-2.3-0.6-5.5-0.7c-1,0.1-2.1,0.3-3,0.7c0,0-0.1,0-0.1,0
		c-0.3,0.1-0.5,0.2-0.8,0.3c0,0-0.1,0-0.1,0c-0.2,0.1-0.5,0.2-0.7,0.4c0,0-0.1,0-0.1,0c-0.2,0.1-0.4,0.3-0.7,0.4c0,0-0.1,0-0.1,0
		c-0.2,0.1-0.4,0.3-0.6,0.4c0,0,0,0-0.1,0C4.3,32.8,4.1,33,4,33.1c0,0,0,0-0.1,0c-0.1,0.1-0.1,0.1-0.2,0.2c0,0,0,0,0,0
		c-0.1,0.1-0.1,0.1-0.2,0.2c0,0,0,0,0,0c-0.1,0.1-0.1,0.1-0.2,0.2c0,0,0,0,0,0c0,0.1-0.1,0.1-0.1,0.2c0,0,0,0,0,0
		c0,0.1-0.1,0.1-0.1,0.1c0,0,0,0,0,0L7.2,40z M18.7,36.7l-0.1-0.2c-0.1-0.4-0.1-0.7,0-1.1c0-0.4,1.3-0.5,1.3-0.5l1.5,0l3.3-0.3
		c0.2,0,0.4-0.1,0.5-0.1L25,34.7c-0.8,0.3-2.2,0.8-2.5,1.1c-0.3,0.2-1.6,0.9-1.9,1c0,0-0.3-0.1-0.9-0.1
		C19.5,36.6,18.8,36.8,18.7,36.7z"/>
	<polygon fill="#FFFFFF" points="2.4,33.8 7.5,41 5.3,42.4 0.3,35.2 	"/>
</g>
</svg>
