<?xml version="1.0" encoding="utf-8"?>
<!-- Generator: Adobe Illustrator 23.0.1, SVG Export Plug-In . SVG Version: 6.00 Build 0)  -->
<svg version="1.1" id="Layer_1" xmlns="http://www.w3.org/2000/svg" xmlns:xlink="http://www.w3.org/1999/xlink" x="0px" y="0px"
	 viewBox="0 0 512 409" style="enable-background:new 0 0 512 409;" xml:space="preserve">
<path fill="#FFFFFF" d="M463.8,13.7H47.5c-18.8,0-34.2,15.4-34.2,34.2v252.1c0,18.8,15.4,34.2,34.2,34.2h416.3
	c18.8,0,34.2-15.4,34.2-34.2V47.9C498,29.1,482.6,13.7,463.8,13.7z M473.9,302.6c0,6.2-5,11.2-11.2,11.2H46.9
	c-6.2,0-11.2-5-11.2-11.2V46.8c0-6.2,5-11.2,11.2-11.2h415.8c6.2,0,11.2,5,11.2,11.2V302.6z"/>
<rect fill="#FFFFFF" x="73.6" y="127.9" width="37.9" height="159.5"/>
<rect fill="#FFFFFF" x="121.4" y="168.7" width="37.9" height="118.7"/>
<rect fill="#FFFFFF" x="217.7" y="148.3" width="37.9" height="139.1"/>
<rect fill="#FFFFFF" x="287.5" y="217.2" width="146" height="19.8"/>
<rect fill="#FFFFFF" x="287.5" y="243.6" width="114.6" height="19.8"/>
<rect fill="#FFFFFF" x="287.5" y="271" width="95.7" height="19.8"/>
<rect fill="#FFFFFF" x="169.2" y="90" width="37.9" height="197.4"/>
<path fill="#FFFFFF" d="M439.5,123.4c0-0.4,0-0.8,0-1.1c0-38.6-31.3-69.8-69.8-69.8c-0.3,0-0.6,0-1,0v70.9H439.5z"/>
<path fill="#FFFFFF" d="M358.8,133.1v0.1c0,0.7-1.1,0.7-1.1,0V61.1c-37.6,1.1-67.8,31.9-67.8,69.8c0,38.6,31.3,69.8,69.8,69.8
	c37.8,0,68.6-30.1,69.7-67.6H358.8z"/>
<path fill="#FFFFFF" d="M357.6,56.4c0,1.1,0,2.3,0,3.4"/>
<polygon fill="#FFFFFF" points="293.2,382.1 293.2,341.3 195.4,341.3 195.4,382.1 176,382.1 176,396.1 312.6,396.1 312.6,382.1 "/>
</svg>
