<?xml version="1.0" encoding="utf-8"?>
<!-- Generator: Adobe Illustrator 23.0.1, SVG Export Plug-In . SVG Version: 6.00 Build 0)  -->
<svg version="1.1" id="Layer_1" xmlns="http://www.w3.org/2000/svg" xmlns:xlink="http://www.w3.org/1999/xlink" x="0px" y="0px"
	 viewBox="0 0 48 48" style="enable-background:new 0 0 48 48;" xml:space="preserve">
<path fill="#FFFFFF"  d="M40.4,0.8"/>
<path fill="#FFFFFF"  d="M42.4,17.8V9.7h1.9c0,0,1.9,0.5,1.9,2.3v3.7c0,0-0.2,2-2.2,2.1L42.4,17.8"/>
<path fill="#FFFFFF"  d="M42.4,27.5v-8.1h1.9c0,0,1.9,0.5,1.9,2.3v3.7c0,0-0.2,2-2.2,2.1L42.4,27.5"/>
<path fill="#FFFFFF"  d="M42.3,37.1V29h1.9c0,0,1.9,0.5,1.9,2.3V35c0,0-0.2,2-2.2,2.1L42.3,37.1"/>
<path fill="#FFFFFF"  d="M42.4,46.8v-8.1h1.9c0,0,1.9,0.5,1.9,2.3v3.7c0,0-0.2,2-2.2,2.1L42.4,46.8"/>
<path fill="#FFFFFF"  d="M9.6,9.8C7.2,10,6.5,7.8,6.5,7.8C6.1,5.6,7.5,3.8,9.7,3.8c3.9,0,7.8,0,11.6,0c4.2,0,8.4,0,12.7,0
	c2,0,4.1,0,6.1,0v-3c0.1,0-31.3,0-31.3,0C3.3,1.3,2.9,6,2.9,6v35.1C3.1,46.7,8.1,47,8.1,47h32V9.8H9.6z M28.3,36.2
	c-0.8,0.6-1.9,1.1-3.1,1.2v2.7h-2.9v-2.7c-1.3-0.2-2.5-0.7-3.6-1.4c-1.4-1-2.1-2.5-2-4.4l0-0.1h3.8c0,1,0.3,1.8,0.8,2.2
	c0.5,0.4,1.3,0.7,2.4,0.7c0.8,0,1.4-0.2,1.8-0.5c0.4-0.3,0.6-0.8,0.6-1.4c0-0.6-0.2-1.1-0.6-1.5c-0.4-0.3-1.1-0.7-2.1-1.1
	c-2.1-0.7-3.7-1.5-4.7-2.3c-1-0.8-1.5-2-1.5-3.5c0-1.5,0.6-2.7,1.8-3.6c0.9-0.7,2-1.1,3.3-1.3v-2.7h3v2.8c1.1,0.2,2.1,0.7,2.9,1.4
	c1.2,1,1.8,2.3,1.7,3.9l0,0.1h-3.8c0-0.7-0.2-1.3-0.7-1.7c-0.5-0.4-1.1-0.7-1.9-0.7c-0.8,0-1.4,0.2-1.8,0.6
	c-0.4,0.4-0.7,0.8-0.7,1.4c0,0.5,0.2,0.9,0.7,1.3c0.5,0.3,1.3,0.7,2.5,1.2c1.9,0.6,3.3,1.4,4.3,2.2c1,0.9,1.4,2.1,1.4,3.7
	C30,34,29.4,35.3,28.3,36.2z"/>
</svg>
