<?xml version="1.0" encoding="utf-8"?>
<!-- Generator: Adobe Illustrator 23.0.1, SVG Export Plug-In . SVG Version: 6.00 Build 0)  -->
<svg version="1.1" id="Layer_1" xmlns="http://www.w3.org/2000/svg" xmlns:xlink="http://www.w3.org/1999/xlink" x="0px" y="0px"
	 viewBox="0 0 100 100" style="enable-background:new 0 0 100 100;" xml:space="preserve">
<style type="text/css">
	.st0{fill:#FFFFFF;}
</style>
<path fill="#FFFFFF" d="M97.21,94.99h-2.1c0.02-0.11,0.03-0.23,0.03-0.35V35.9c0-1.33-1.08-2.4-2.4-2.4H80.95c-1.33,0-2.4,1.08-2.4,2.4
	v58.75c0,0.12,0.01,0.24,0.03,0.35h-8.06V60.53c0-1.33-1.08-2.4-2.4-2.4H56.32c-1.33,0-2.4,1.08-2.4,2.4v34.46h-7.95V52.23
	c0-1.33-1.08-2.4-2.4-2.4H31.77c-1.33,0-2.4,1.08-2.4,2.4v42.76h-8.15c0.02-0.11,0.03-0.23,0.03-0.35V72.81c0-1.33-1.08-2.4-2.4-2.4
	H7.05c-1.33,0-2.4,1.08-2.4,2.4v21.83c0,0.12,0.01,0.24,0.03,0.35H2.79c-1.13,0-2.05,0.92-2.05,2.05l0,0c0,1.13,0.92,2.05,2.05,2.05
	h94.43c1.13,0,2.05-0.92,2.05-2.05l0,0C99.27,95.91,98.35,94.99,97.21,94.99z"/>
<path fill="#FFFFFF" d="M12.95,37.39c-4.44,0-8.04,3.6-8.04,8.04s3.6,8.04,8.04,8.04c4.44,0,8.04-3.6,8.04-8.04
	S17.38,37.39,12.95,37.39z M12.95,51.08c-3.12,0-5.65-2.53-5.65-5.65c0-3.12,2.53-5.65,5.65-5.65c3.12,0,5.65,2.53,5.65,5.65
	C18.6,48.55,16.07,51.08,12.95,51.08z"/>
<path fill="#FFFFFF" d="M37.84,18.12c-4.44,0-8.04,3.6-8.04,8.04s3.6,8.04,8.04,8.04c4.44,0,8.04-3.6,8.04-8.04
	S42.28,18.12,37.84,18.12z M37.84,31.81c-3.12,0-5.65-2.53-5.65-5.65s2.53-5.65,5.65-5.65c3.12,0,5.65,2.53,5.65,5.65
	S40.96,31.81,37.84,31.81z"/>
<path fill="#FFFFFF" d="M61.95,25.09c-4.44,0-8.04,3.6-8.04,8.04s3.6,8.04,8.04,8.04c4.44,0,8.04-3.6,8.04-8.04
	S66.39,25.09,61.95,25.09z M61.95,38.77c-3.12,0-5.65-2.53-5.65-5.65s2.53-5.65,5.65-5.65c3.12,0,5.65,2.53,5.65,5.65
	S65.07,38.77,61.95,38.77z"/>
<path fill="#FFFFFF" d="M86.85,1.7c-4.44,0-8.04,3.6-8.04,8.04s3.6,8.04,8.04,8.04c4.44,0,8.04-3.6,8.04-8.04S91.29,1.7,86.85,1.7z
	 M86.85,15.39c-3.12,0-5.65-2.53-5.65-5.65s2.53-5.65,5.65-5.65c3.12,0,5.65,2.53,5.65,5.65S89.97,15.39,86.85,15.39z"/>
<polygon fill="#FFFFFF" points="17.4,39.14 30.85,28.22 33.47,30.23 32.86,31.45 20.11,41.78 19.24,42.81 "/>
<polygon fill="#FFFFFF" points="54.44,32.33 43.69,28.83 44.83,25.09 56.71,28.71 55.49,33.12 "/>
<polygon fill="#FFFFFF" points="65.79,27.21 80.56,12.15 83.44,14.89 68.5,29.79 "/>
</svg>
