<?xml version="1.0" encoding="utf-8"?>
<!-- Generator: Adobe Illustrator 23.0.1, SVG Export Plug-In . SVG Version: 6.00 Build 0)  -->
<svg version="1.1" id="Layer_1" xmlns="http://www.w3.org/2000/svg" xmlns:xlink="http://www.w3.org/1999/xlink" x="0px" y="0px"
	 viewBox="0 0 878.4 770.3" style="enable-background:new 0 0 878.4 770.3;" xml:space="preserve">
<style type="text/css">
	.st0{fill:#0D7EFF;}
	.st1{fill:#006DCD;}
	.st2{fill:#59C1EF;}
	.st3{fill:#AAAAAA;}
	.st4{fill:#D8D7DB;}
	.st5{fill:#E0E6FA;}
	.st6{fill:#00506A;}
	.st7{fill:#FEFFFF;}
	.st8{fill:#F2F0F7;}
</style>
<g>
	
		<ellipse transform="matrix(0.7071 -0.7071 0.7071 0.7071 -190.0599 443.0374)" class="st0" cx="439.8" cy="450.9" rx="299.3" ry="299.3"/>
	<polygon class="st1" points="390.8,9.6 404,40.3 434.7,53.6 404,66.9 390.8,97.6 377.5,66.9 346.8,53.6 377.5,40.3 	"/>
	<polygon class="st1" points="829.2,318.5 839.7,342.7 863.9,353.2 839.7,363.7 829.2,387.9 818.7,363.7 794.5,353.2 818.7,342.7 	
		"/>
	<polygon class="st1" points="56.4,342.1 64.1,360 82,367.7 64.1,375.4 56.4,393.3 48.7,375.4 30.8,367.7 48.7,360 	"/>
	<path class="st2" d="M686.7,86.4c15.3,4,24.5,19.6,20.6,34.9c-4,15.3-19.6,24.5-34.9,20.6c-15.3-4-24.5-19.6-20.6-34.9
		S671.4,82.5,686.7,86.4z"/>
	<path class="st2" d="M128.7,162.7c0,10.5-8.5,18.9-18.9,18.9c-10.5,0-18.9-8.5-18.9-18.9c0-10.5,8.5-18.9,18.9-18.9
		C120.2,143.8,128.7,152.3,128.7,162.7z"/>
	<g>
		<path class="st3" d="M240.1,364.7v212.1c0,13.9,11.3,25.2,25.2,25.2h353.6c13.9,0,25.2-11.3,25.2-25.2V364.7H240.1z"/>
		<path class="st4" d="M635,346.7L455.1,215.2c-7.8-5.7-18.3-5.7-26.1,0L249.2,346.7c-5.7,4.2-9,10.8-9,17.8v0.1h403.9v-0.1
			C644.1,357.5,640.7,350.9,635,346.7z"/>
		<path class="st5" d="M584.7,329.3H300.3c-4.4,0-7.9,3.5-7.9,7.9v224.7c0,4.4,3.5,7.9,7.9,7.9h284.4c4.4,0,7.9-3.5,7.9-7.9V337.2
			C592.6,332.8,589.1,329.3,584.7,329.3z"/>
		<g>
			<path class="st6" d="M338.7,399.1h208.5c2.2,0,4-1.8,4-4s-1.8-4-4-4H338.7c-2.2,0-4,1.8-4,4S336.5,399.1,338.7,399.1z"/>
			<path class="st6" d="M547.2,425.4H338.7c-2.2,0-4,1.8-4,4s1.8,4,4,4h208.5c2.2,0,4-1.8,4-4S549.5,425.4,547.2,425.4z"/>
			<path class="st6" d="M547.2,459.8H338.7c-2.2,0-4,1.8-4,4c0,2.2,1.8,4,4,4h208.5c2.2,0,4-1.8,4-4
				C551.2,461.6,549.5,459.8,547.2,459.8z"/>
		</g>
		<path class="st7" d="M265.3,602h354c13.7,0,24.8-11.1,24.8-24.8V364.7L265.3,602z"/>
		<path class="st8" d="M240.1,364.7v212.5c0,13.7,11.1,24.8,24.8,24.8h354L240.1,364.7z"/>
	</g>
</g>
</svg>
