<svg width="13" height="14" viewBox="0 0 13 14" fill="none" xmlns="http://www.w3.org/2000/svg">
<path d="M7.95455 1.59091C7.95455 2.54545 7 5.40909 7 5.40909H5.72727C5.72727 5.40909 4.77273 2.54545 4.77273 1.59091C4.77273 1.16897 4.94034 0.76432 5.23869 0.465966C5.53705 0.167613 5.9417 0 6.36364 0C6.78557 0 7.19023 0.167613 7.48858 0.465966C7.78693 0.76432 7.95455 1.16897 7.95455 1.59091ZM6.36364 6.36364C5.66364 6.36364 5.09091 6.93636 5.09091 7.63636C5.09091 8.33636 5.66364 8.90909 6.36364 8.90909C7.06364 8.90909 7.63636 8.33636 7.63636 7.63636C7.63636 6.93636 7.06364 6.36364 6.36364 6.36364ZM8.96 3.25182C9.07454 2.77455 9.17 2.31636 9.20818 1.94091C10.2662 2.46928 11.156 3.28214 11.7776 4.28822C12.3993 5.29429 12.7281 6.45374 12.7273 7.63636C12.7273 11.1491 9.87636 14 6.36364 14C2.85091 14 0 11.1491 0 7.63636C0 5.14182 1.43182 2.98455 3.51909 1.94091C3.56364 2.31636 3.65273 2.78091 3.76727 3.25182C3.00758 3.70428 2.37834 4.34618 1.94108 5.11472C1.50383 5.88327 1.27353 6.75214 1.27273 7.63636C1.27273 10.4491 3.55091 12.7273 6.36364 12.7273C9.17636 12.7273 11.4545 10.4491 11.4545 7.63636C11.4545 5.77182 10.4491 4.14273 8.96 3.25182ZM10.1818 7.63636C10.1818 9.74273 8.47 11.4545 6.36364 11.4545C4.25727 11.4545 2.54545 9.74273 2.54545 7.63636C2.54545 6.36364 3.16909 5.23727 4.12364 4.54364C4.27 5.05909 4.53727 5.86091 4.53727 5.86091C4.09182 6.31909 3.81818 6.94909 3.81818 7.63636C3.81818 9.04273 4.95727 10.1818 6.36364 10.1818C7.77 10.1818 8.90909 9.04273 8.90909 7.63636C8.90909 6.94909 8.63545 6.31909 8.19 5.86091C8.19 5.86091 8.45091 5.08455 8.60364 4.54364C9.09248 4.89765 9.49041 5.36254 9.76475 5.90016C10.0391 6.43778 10.182 7.03279 10.1818 7.63636Z" fill="#F24E1E"/>
</svg>
